<svg width="44" height="44" viewBox="0 0 44 44" fill="none" xmlns="http://www.w3.org/2000/svg">
<g clip-path="url(#clip0_13_679)">
<path d="M41.25 2.75C41.25 10.9398 35.2859 17.7375 27.457 19.0266C27.6891 19.9031 27.8609 20.8055 27.9813 21.725C37.0734 20.1867 44 12.2805 44 2.75C44 1.22891 42.7711 0 41.25 0H38.5C31.5391 0 25.4375 3.69531 22.0516 9.23828C22.7219 9.95156 23.3492 10.7164 23.925 11.507C26.7008 6.29922 32.1836 2.75 38.5 2.75H41.25ZM5.5 8.25C14.6094 8.25 22 15.6406 22 24.75H19.25C10.1406 24.75 2.75 17.3594 2.75 8.25H5.5ZM2.75 5.5C1.22891 5.5 0 6.72891 0 8.25C0 18.8805 8.61953 27.5 19.25 27.5H22V42.625C22 43.3812 22.6187 44 23.375 44C24.1313 44 24.75 43.3812 24.75 42.625V27.5V26.125V24.75C24.75 14.1195 16.1305 5.5 5.5 5.5H2.75Z" fill="#BA202D"/>
</g>
<defs>
<clipPath id="clip0_13_679">
<rect width="44" height="44" fill="white"/>
</clipPath>
</defs>
</svg>
