<svg width="32" height="29" viewBox="0 0 32 29" fill="none" xmlns="http://www.w3.org/2000/svg">
<g clip-path="url(#clip0_12_634)">
<path d="M17.6056 1C17.3111 0.388889 16.6889 0 16.0056 0C15.3222 0 14.7056 0.388889 14.4056 1L10.8333 8.35L2.85556 9.52778C2.18889 9.62778 1.63333 10.0944 1.42778 10.7333C1.22222 11.3722 1.38889 12.0778 1.86667 12.55L7.65556 18.2778L6.28889 26.3722C6.17778 27.0389 6.45556 27.7167 7.00556 28.1111C7.55556 28.5056 8.28333 28.5556 8.88333 28.2389L16.0111 24.4333L23.1389 28.2389C23.7389 28.5556 24.4667 28.5111 25.0167 28.1111C25.5667 27.7111 25.8444 27.0389 25.7333 26.3722L24.3611 18.2778L30.15 12.55C30.6278 12.0778 30.8 11.3722 30.5889 10.7333C30.3778 10.0944 29.8278 9.62778 29.1611 9.52778L21.1778 8.35L17.6056 1Z" fill="#BA202D"/>
</g>
<defs>
<clipPath id="clip0_12_634">
<rect width="32" height="28.4444" fill="white"/>
</clipPath>
</defs>
</svg>
