<svg width="32" height="32" viewBox="0 0 32 32" fill="none" xmlns="http://www.w3.org/2000/svg">
<path d="M23.9875 21.9813C24.1437 21.825 30.5625 16.2062 30.5625 16.2062L29.4688 15.7375C28.8438 15.4313 29.0063 15.0187 29.1562 14.65C29.3062 14.175 30.4125 10.4438 30.4125 10.4438C30.4125 10.4438 27.4312 11.0688 26.8062 11.225C26.3375 11.375 26.1812 11.0688 26.025 10.7563C25.8687 10.4438 25.0875 8.73125 25.0875 8.73125C25.0875 8.73125 21.8 12.475 21.6437 12.625C21.0187 13.0938 20.3875 12.625 20.5438 12C20.5438 11.375 22.2687 3.9 22.2687 3.9C22.2687 3.9 20.3875 4.9875 19.7625 5.3C19.2938 5.6125 18.975 5.6125 18.6625 4.9875C18.3438 4.51875 15.9937 0 15.9937 0C15.9937 0 13.65 4.51875 13.3375 4.9875C13.025 5.6125 12.7125 5.6125 12.2375 5.3C11.6125 4.9875 9.73125 3.9 9.73125 3.9C9.73125 3.9 11.4563 11.375 11.4563 12C11.6125 12.625 10.9875 13.0938 10.3562 12.625C10.2 12.4688 6.9125 8.73125 6.9125 8.73125C6.9125 8.73125 6.13125 10.4375 5.975 10.75C5.81875 11.0625 5.6625 11.3687 5.19375 11.2188C4.5625 11.0625 1.5875 10.4375 1.5875 10.4375C1.5875 10.4375 2.6875 14.1687 2.84375 14.6438C2.99375 15.0188 3.15625 15.425 2.53125 15.7312L1.4375 16.2062C1.4375 16.2062 7.85 21.825 8.0125 21.9813C8.33125 22.2938 8.6375 22.45 8.33125 23.3875C8.0125 24.325 7.7 25.5812 7.7 25.5812C7.7 25.5812 13.65 24.325 14.2812 24.1688C14.825 24.1125 15.425 24.325 15.425 24.95C15.425 25.575 15.0625 32 15.0625 32H16.9375C16.9375 32 16.575 25.5813 16.575 24.95C16.575 24.3188 17.1688 24.1125 17.725 24.1688C18.35 24.325 24.3 25.5812 24.3 25.5812C24.3 25.5812 23.9875 24.325 23.675 23.3875C23.3625 22.45 23.675 22.2938 23.9875 21.9813Z" fill="#BA202D"/>
</svg>
