<svg width="81" height="80" viewBox="0 0 81 80" fill="none" xmlns="http://www.w3.org/2000/svg">
<rect x="0.289124" width="80" height="80" rx="12.8" fill="#BB7C4D"/>
<g clip-path="url(#clip0_26_276)">
<path d="M43.2685 22.1237C44.0878 22.1237 44.7582 22.794 44.7582 23.6133V29.5721C44.7582 30.3914 44.0878 31.0618 43.2685 31.0618H41.7788H38.7994H37.3097C36.4904 31.0618 35.82 30.3914 35.82 29.5721V23.6133C35.82 22.794 36.4904 22.1237 37.3097 22.1237H43.2685ZM37.3097 34.0412H38.7994V38.5102H23.9025C21.4352 38.5102 19.4335 40.512 19.4335 42.9793V45.9587H17.9438C15.4765 45.9587 13.4747 47.9604 13.4747 50.4277V56.3865C13.4747 58.8538 15.4765 60.8555 17.9438 60.8555H23.9025C26.3698 60.8555 28.3716 58.8538 28.3716 56.3865V50.4277C28.3716 47.9604 26.3698 45.9587 23.9025 45.9587H22.4129V42.9793C22.4129 42.16 23.0832 41.4896 23.9025 41.4896H38.7994V45.9587H37.3097C34.8424 45.9587 32.8407 47.9604 32.8407 50.4277V56.3865C32.8407 58.8538 34.8424 60.8555 37.3097 60.8555H43.2685C45.7358 60.8555 47.7375 58.8538 47.7375 56.3865V50.4277C47.7375 47.9604 45.7358 45.9587 43.2685 45.9587H41.7788V41.4896H56.6757C57.495 41.4896 58.1654 42.16 58.1654 42.9793V45.9587H56.6757C54.2084 45.9587 52.2066 47.9604 52.2066 50.4277V56.3865C52.2066 58.8538 54.2084 60.8555 56.6757 60.8555H62.6344C65.1017 60.8555 67.1035 58.8538 67.1035 56.3865V50.4277C67.1035 47.9604 65.1017 45.9587 62.6344 45.9587H61.1447V42.9793C61.1447 40.512 59.143 38.5102 56.6757 38.5102H41.7788V34.0412H43.2685C45.7358 34.0412 47.7375 32.0394 47.7375 29.5721V23.6133C47.7375 21.1461 45.7358 19.1443 43.2685 19.1443H37.3097C34.8424 19.1443 32.8407 21.1461 32.8407 23.6133V29.5721C32.8407 32.0394 34.8424 34.0412 37.3097 34.0412ZM17.9438 48.938H23.9025C24.7219 48.938 25.3922 49.6084 25.3922 50.4277V56.3865C25.3922 57.2058 24.7219 57.8762 23.9025 57.8762H17.9438C17.1245 57.8762 16.4541 57.2058 16.4541 56.3865V50.4277C16.4541 49.6084 17.1245 48.938 17.9438 48.938ZM37.3097 48.938H43.2685C44.0878 48.938 44.7582 49.6084 44.7582 50.4277V56.3865C44.7582 57.2058 44.0878 57.8762 43.2685 57.8762H37.3097C36.4904 57.8762 35.82 57.2058 35.82 56.3865V50.4277C35.82 49.6084 36.4904 48.938 37.3097 48.938ZM56.6757 48.938H62.6344C63.4537 48.938 64.1241 49.6084 64.1241 50.4277V56.3865C64.1241 57.2058 63.4537 57.8762 62.6344 57.8762H56.6757C55.8563 57.8762 55.186 57.2058 55.186 56.3865V50.4277C55.186 49.6084 55.8563 48.938 56.6757 48.938Z" fill="#FFF3EB"/>
</g>
<defs>
<clipPath id="clip0_26_276">
<rect width="53.6287" height="47.67" fill="white" transform="translate(13.4747 16.165)"/>
</clipPath>
</defs>
</svg>
